<svg xmlns="http://www.w3.org/2000/svg" viewBox="0 0 100.221 100.221" width="512" height="512"><path d="M1.302 37.69c1.176.846 1.908-2.488 2.304-3.125 1.24-2 3.652-3.107 5.551-4.368 3.341-2.222 8.944-3.671 12.921-3.565 5.645-.1 11.828-.954 17.34.755 4.401 1.364 8.968 2.309 13.428 3.721 5.014 1.588 9.979 3.351 15.143 4.413 2.858.586 5.757.964 8.672 1.103 2.249.106 4.522-.526 6.739-.274 1.715-1.169 4.336-.971 5.697-2.68 2.097-.615 3.509-2.308 5.362-3.351 1.264-.711 7.025-8.416 5.343-10.373a1.08 1.08 0 0 0-.269-.227c-1.03-.619-2.754 2.546-3.537 3.284-1.877 1.769-3.858 3.351-6.081 4.671-4.701 2.791-9.126 3.209-14.485 2.517-9.539-1.23-18.631-4.454-27.72-7.222-10.069-3.065-21.017-3.438-31.33-1.5-4.278.805-10.049 3.029-12.628 6.719-1.334 1.91-5.929 7.232-2.45 9.502zm98.441 4.142c-.987-.505-3.215 2.42-3.825 3.015-1.597 1.556-3.331 2.979-5.229 4.154-4.366 2.7-8.358 3.098-13.368 3.098-10.285 0-20.808-4.959-30.629-7.637-10.148-2.766-21.245-3.329-31.524-.949-4.557 1.056-9.309 3.373-11.984 7.284-1.265 1.85-5.105 6.571-1.882 8.675 1.176.846 1.908-2.488 2.304-3.125 1.24-2 3.652-3.106 5.551-4.369 3.341-2.223 8.944-3.672 12.921-3.565 5.645-.1 11.828-.955 17.34.754 4.401 1.365 8.968 2.309 13.428 3.721 5.014 1.588 9.979 3.35 15.143 4.413 2.858.587 5.757.965 8.672 1.103 2.249.107 4.522-.525 6.739-.274 1.715-1.169 4.336-.971 5.697-2.681 2.097-.614 3.509-2.305 5.362-3.35 1.858-1.047 6.153-7.199 5.697-9.549-.077-.395-.222-.622-.413-.718zm.253 21.15a1.286 1.286 0 0 0-.286-.379c-1.133-.976-3.145 2.404-3.931 3.167a30.465 30.465 0 0 1-5.582 4.304c-4.856 2.897-10.443 3.07-15.928 2.436-9.474-1.092-18.18-5.051-27.421-7.13-4.074-.917-7.824-2.044-12.074-2.223-5.448-.232-10.619-.396-16.046.452-2.724.425-5.439 1.045-7.994 2.1-2.229.919-3.964 2.716-5.779 4.283-1.953 1.684-8.062 8.769-2.982 10.588 3.034-9.192 15.857-11.73 24.493-11.734 5.715-.005 11.223.42 16.746 1.903 4.428 1.188 8.752 2.714 13.113 4.125 8.481 2.742 19.806 6.44 28.493 3.355 3.698-1.313 7.31-3.257 10.211-5.922 1.572-1.446 6.269-6.838 4.967-9.325z" fill="#FFF" fill-rule="evenodd" clip-rule="evenodd"/></svg>