<svg xmlns="http://www.w3.org/2000/svg" viewBox="0 0 55.835 55.835" width="512" height="512"><g fill="#FFF"><path d="M55.288 39.943c-.398-4.089-3.45-7.052-7.271-7.052-2.396 0-4.407 1.448-5.684 3.212-1.276-1.764-3.288-3.213-5.684-3.213-3.819 0-6.871 2.963-7.27 7.051-.042.269-.145 1.222.225 2.711.545 2.196 1.8 4.19 3.631 5.77l8.335 7.133a1.18 1.18 0 0 0 1.532-.005l8.331-7.13c1.829-1.576 3.084-3.57 3.63-5.768.37-1.488.267-2.44.225-2.709zm-2.166 2.227c-.445 1.794-1.48 3.431-2.991 4.732l-7.797 6.673-7.794-6.671c-1.514-1.304-2.549-2.941-2.993-4.734-.302-1.214-.193-1.897-.194-1.897l.017-.106c.244-2.621 2.137-5.275 5.281-5.275 2.189 0 3.974 1.811 4.77 3.605l.914 2.061.914-2.061c.796-1.794 2.579-3.604 4.77-3.604 3.146 0 5.038 2.654 5.296 5.367 0 .006.111.69-.193 1.91zM27.501 12a1 1 0 1 0 0 2h18a1 1 0 1 0 0-2h-18zm19 15a1 1 0 0 0-1-1h-18a1 1 0 1 0 0 2h18a1 1 0 0 0 1-1zM21.08 7.241a.999.999 0 0 0-1.409.108l-6.248 7.288-3.822-2.866a1 1 0 1 0-1.199 1.599l4.571 3.429a.995.995 0 0 0 1.359-.15l6.857-8a.997.997 0 0 0-.109-1.408zm0 14a.999.999 0 0 0-1.409.108l-6.248 7.288-3.822-2.866a1 1 0 1 0-1.199 1.599l4.571 3.429a.995.995 0 0 0 1.359-.15l6.857-8a.997.997 0 0 0-.109-1.408zM19.671 36.35l-6.248 7.287-3.822-2.866a.998.998 0 1 0-1.199 1.599l4.571 3.429a.995.995 0 0 0 1.359-.15l6.857-7.999a1 1 0 0 0-1.518-1.3z"/><path d="M25.501 52H12.677C7.066 52 2.501 47.436 2.501 41.824V12.176C2.501 6.564 7.066 2 12.677 2h29.648c5.611 0 10.176 4.564 10.176 10.176V30a1 1 0 1 0 2 0V12.176C54.501 5.462 49.039 0 42.325 0H12.677C5.963 0 .501 5.462.501 12.176v29.648C.501 48.538 5.963 54 12.677 54h12.824a1 1 0 1 0 0-2z"/></g></svg>