<svg xmlns="http://www.w3.org/2000/svg" viewBox="0 0 512 512" width="512" height="512"><path d="M291.273 220.481a8.629 8.629 0 0 0-.423-.953l-20.002-38.549a8.605 8.605 0 0 0-11.604-3.675 8.605 8.605 0 0 0-3.675 11.604l19.757 38.078c10.501 28.5 9.348 59.39-3.264 87.039-12.683 27.804-35.439 49.005-64.071 59.699a114.17 114.17 0 0 1-36.269 7.166 114.192 114.192 0 0 1-36.271-7.166c-28.632-10.693-51.386-31.894-64.07-59.699-12.612-27.649-13.766-58.54-3.262-87.039L171.721 27.298 241.919 162.6a8.61 8.61 0 0 0 11.605 3.677 8.61 8.61 0 0 0 3.677-11.605L179.363 4.643a8.61 8.61 0 0 0-15.283 0L52.591 219.528c-.159.309-.3.627-.422.953-12.303 32.94-11.044 68.698 3.55 100.688 14.592 31.988 40.769 56.38 73.709 68.681a131.32 131.32 0 0 0 42.031 8.255 7.65 7.65 0 0 0 .524 0 131.299 131.299 0 0 0 42.03-8.255c32.94-12.301 59.118-36.693 73.71-68.681 14.593-31.987 15.854-67.746 3.55-100.688zm172.569 57.655a8.82 8.82 0 0 0-.423-.953l-19.609-37.795c-2.188-4.218-7.381-5.864-11.605-3.677a8.61 8.61 0 0 0-3.677 11.605l19.36 37.314c9.705 26.766-3.997 56.52-30.726 66.501a51.988 51.988 0 0 1-16.357 3.256 51.96 51.96 0 0 1-16.358-3.255c-13.027-4.864-23.378-14.51-29.147-27.159-5.7-12.496-6.256-26.448-1.577-39.342l47.082-90.747 15.599 30.066a8.608 8.608 0 0 0 15.281-7.928l-23.24-44.793a8.61 8.61 0 0 0-15.282 0l-54.972 105.954c-.16.309-.301.627-.423.953-6.474 17.333-5.811 36.149 1.867 52.982 7.679 16.833 21.454 29.667 38.789 36.142a69.176 69.176 0 0 0 22.116 4.343 7.747 7.747 0 0 0 .531-.001 69.1 69.1 0 0 0 22.115-4.344c35.779-13.361 54.018-53.341 40.656-89.122zM353.97 444.884l-36.629-70.601a8.61 8.61 0 0 0-15.281 0l-36.633 70.601a8.473 8.473 0 0 0-.425.954c-9.455 25.326 3.455 53.625 28.782 63.084a49.014 49.014 0 0 0 15.651 3.073 7.767 7.767 0 0 0 .531 0 49.042 49.042 0 0 0 15.652-3.074c25.325-9.459 38.234-37.758 28.775-63.084a8.997 8.997 0 0 0-.423-.953zm-34.374 47.909a31.818 31.818 0 0 1-9.898 1.987 31.792 31.792 0 0 1-9.896-1.985c-16.279-6.08-24.652-24.157-18.842-40.473l28.738-55.383 28.733 55.383c5.812 16.315-2.56 34.392-18.835 40.471z" fill="#FFF"/></svg>